<svg xmlns="http://www.w3.org/2000/svg" xmlns:xlink="http://www.w3.org/1999/xlink" width="1080" height="1080" viewBox="0 0 1080 1080">
  <defs>
    <clipPath id="clip-Empty_Container">
      <rect width="1080" height="1080"/>
    </clipPath>
  </defs>
  <g id="Empty_Container" clip-path="url(#clip-Empty_Container)">
    <g id="Group_1" data-name="Group 1" transform="translate(208.887 -50.114)">
      <g id="noun_Jar_1006848" transform="translate(40 168)">
        <g id="Layer_2" data-name="Layer 2" transform="translate(0 0)">
          <g id="Group_1523" data-name="Group 1523" transform="translate(0 -1)">
            <rect id="Rectangle_1674" data-name="Rectangle 1674" width="525.539" height="84.309" rx="42.155" transform="translate(28.344 -5)" fill="none" stroke="#304922" stroke-linecap="round" stroke-linejoin="round" stroke-width="30"/>
            <path id="Path_3467" data-name="Path 3467" d="M528.512,11v7.45c0,26.48,0,33.571,20.9,43.894a61.194,61.194,0,0,1,34.81,52.332V720.13c0,34.649-19.268,53.858-54.533,53.858H56.533C21.45,773.988,2,754.958,2,720.13v-605A61.193,61.193,0,0,1,36.81,62.793c20.9-10.323,20.9-17.414,20.9-43.894V11" transform="translate(-2 70.24)" fill="none" stroke="#304922" stroke-linecap="round" stroke-linejoin="round" stroke-width="30"/>
          </g>
        </g>
      </g>
      <path id="Rectangle_1675" data-name="Rectangle 1675" d="M0,0H553a0,0,0,0,1,0,0V46a34,34,0,0,1-34,34H34A34,34,0,0,1,0,46V0A0,0,0,0,1,0,0Z" transform="translate(55 918)" fill="#f54040"/>
    </g>
  </g>
</svg>
